<svg width="227" height="61" viewBox="0 0 227 61" fill="none" xmlns="http://www.w3.org/2000/svg">
<path d="M42.5 10.3279H51.5V13.2787H42.5V10.3279ZM42.5 16.2295H51.5V19.1803H42.5V16.2295ZM42.5 22.1311H51.5V25.082H42.5V22.1311ZM36.5 10.3279H39.5V13.2787H36.5V10.3279ZM36.5 16.2295H39.5V19.1803H36.5V16.2295ZM36.5 22.1311H39.5V25.082H36.5V22.1311ZM56.15 4.42622H31.85C31.1 4.42622 30.5 5.01639 30.5 5.75409V29.6557C30.5 30.2459 31.1 30.9836 31.85 30.9836H56.15C56.75 30.9836 57.5 30.2459 57.5 29.6557V5.75409C57.5 5.01639 56.75 4.42622 56.15 4.42622ZM54.5 28.0328H33.5V7.37704H54.5V28.0328Z" fill="#8459E3"/>
<path d="M23.1593 14.538C21.2153 13.458 19.2473 12.714 17.2553 12.306V30.918H8.75931V12.306C6.76731 12.714 4.79931 13.458 2.85531 14.538L0.0473125 8.49003C1.84731 7.41003 3.86331 6.58203 6.09531 6.00603C8.32731 5.43003 10.6313 5.14203 13.0073 5.14203C15.3833 5.14203 17.6873 5.43003 19.9193 6.00603C22.1513 6.58203 24.1673 7.41003 25.9673 8.49003L23.1593 14.538Z" fill="#8459E3"/>
<path d="M20.1809 35.2098H32.6009C35.4089 35.2098 37.8809 35.7258 40.0169 36.7578C42.1769 37.7658 43.8449 39.2178 45.0209 41.1138C46.2209 43.0098 46.8209 45.2418 46.8209 47.8098C46.8209 50.3778 46.2209 52.6098 45.0209 54.5058C43.8449 56.4018 42.1769 57.8658 40.0169 58.8978C37.8809 59.9058 35.4089 60.4098 32.6009 60.4098H20.1809V35.2098ZM32.2409 53.7858C34.0649 53.7858 35.5169 53.2698 36.5969 52.2378C37.7009 51.1818 38.2529 49.7058 38.2529 47.8098C38.2529 45.9138 37.7009 44.4498 36.5969 43.4178C35.5169 42.3618 34.0649 41.8338 32.2409 41.8338H28.6769V53.7858H32.2409Z" fill="#8459E3"/>
<path d="M106.811 26.43C103.895 24.81 100.943 23.694 97.9552 23.082V51H85.2112V23.082C82.2232 23.694 79.2712 24.81 76.3552 26.43L72.1432 17.358C74.8432 15.738 77.8672 14.496 81.2152 13.632C84.5632 12.768 88.0192 12.336 91.5832 12.336C95.1472 12.336 98.6032 12.768 101.951 13.632C105.299 14.496 108.323 15.738 111.023 17.358L106.811 26.43ZM125.382 51.54C122.106 51.54 119.154 50.892 116.526 49.596C113.934 48.264 111.9 46.446 110.424 44.142C108.948 41.802 108.21 39.156 108.21 36.204C108.21 33.252 108.948 30.624 110.424 28.32C111.9 25.98 113.934 24.162 116.526 22.866C119.154 21.57 122.106 20.922 125.382 20.922C128.694 20.922 131.646 21.57 134.238 22.866C136.866 24.162 138.9 25.98 140.34 28.32C141.816 30.624 142.554 33.252 142.554 36.204C142.554 39.156 141.816 41.802 140.34 44.142C138.9 46.446 136.866 48.264 134.238 49.596C131.646 50.892 128.694 51.54 125.382 51.54ZM125.382 42.036C126.786 42.036 127.938 41.532 128.838 40.524C129.738 39.48 130.188 38.04 130.188 36.204C130.188 34.368 129.738 32.946 128.838 31.938C127.938 30.93 126.786 30.426 125.382 30.426C123.978 30.426 122.826 30.93 121.926 31.938C121.026 32.946 120.576 34.368 120.576 36.204C120.576 38.04 121.026 39.48 121.926 40.524C122.826 41.532 123.978 42.036 125.382 42.036ZM146.752 13.2H165.382C169.594 13.2 173.302 13.974 176.506 15.522C179.746 17.034 182.248 19.212 184.012 22.056C185.812 24.9 186.712 28.248 186.712 32.1C186.712 35.952 185.812 39.3 184.012 42.144C182.248 44.988 179.746 47.184 176.506 48.732C173.302 50.244 169.594 51 165.382 51H146.752V13.2ZM164.842 41.064C167.578 41.064 169.756 40.29 171.376 38.742C173.032 37.158 173.86 34.944 173.86 32.1C173.86 29.256 173.032 27.06 171.376 25.512C169.756 23.928 167.578 23.136 164.842 23.136H159.496V41.064H164.842ZM206.593 51.54C203.317 51.54 200.365 50.892 197.737 49.596C195.145 48.264 193.111 46.446 191.635 44.142C190.159 41.802 189.421 39.156 189.421 36.204C189.421 33.252 190.159 30.624 191.635 28.32C193.111 25.98 195.145 24.162 197.737 22.866C200.365 21.57 203.317 20.922 206.593 20.922C209.905 20.922 212.857 21.57 215.449 22.866C218.077 24.162 220.111 25.98 221.551 28.32C223.027 30.624 223.765 33.252 223.765 36.204C223.765 39.156 223.027 41.802 221.551 44.142C220.111 46.446 218.077 48.264 215.449 49.596C212.857 50.892 209.905 51.54 206.593 51.54ZM206.593 42.036C207.997 42.036 209.149 41.532 210.049 40.524C210.949 39.48 211.399 38.04 211.399 36.204C211.399 34.368 210.949 32.946 210.049 31.938C209.149 30.93 207.997 30.426 206.593 30.426C205.189 30.426 204.037 30.93 203.137 31.938C202.237 32.946 201.787 34.368 201.787 36.204C201.787 38.04 202.237 39.48 203.137 40.524C204.037 41.532 205.189 42.036 206.593 42.036Z" fill="#8459E3"/>
</svg>
